<?xml version="1.0" encoding="utf-8"?>
<svg viewBox="0 0 49 48" xmlns="http://www.w3.org/2000/svg">
  <path style="fill: rgb(187, 218, 246); stroke: rgb(187, 218, 246);" d="M 27.158 29.832 C 27.158 29.832 28.339893211535674 28.378423200428866 29.427 28.045 C 31.304445688218518 27.469174371239582 35.89059493427824 28.239559604120053 38.019 28.664 C 39.32840625051169 28.92511801568486 40.12693468618558 29.223340381585885 41.112 29.695 C 42.12268880333542 30.17892841432077 43.12605564920791 30.716946299982318 43.999 31.551 C 45.013364312416925 32.52017324359744 46.216301208736304 33.910482979471325 46.68 35.331 C 47.15590788452716 36.78891893986241 47.14688310810552 38.65990124160894 46.749 40.212 C 46.33458492969079 41.82858814607151 45.41404542098826 43.66053163188576 44.136 44.818 C 42.782516342289505 46.04378939279641 40.63369031240759 46.90191610529354 38.706 47.224 C 36.702466639817914 47.55875596348039 34.14068227858558 47.577355009744466 32.314 46.673 C 30.39835053365664 45.72459905906389 28.50570923540621 43.749792819889784 27.57 41.45 C 26.368931300303196 38.49800479974108 27.158 29.832 27.158 29.832 C 27.158 29.831999999999997 27.158 29.832 27.158 29.832"/>
  <path style="fill: rgb(239, 231, 186); stroke: rgb(239, 231, 186);" d="M 1.928 3.716 C 1.928 3.716 3.109893211535677 2.2624232004288682 4.197 1.929 C 6.074445688218515 1.3531743712395725 10.660594934278246 2.123559604120049 12.789 2.548 C 14.098406250511685 2.809118015684857 14.896934686185578 3.107340381585887 15.882 3.579 C 16.892688803335428 4.062928414320769 17.89605564920792 4.600946299982324 18.769 5.435 C 19.783364312416918 6.404173243597438 20.986301208736318 7.79448297947133 21.45 9.215 C 21.925907884527167 10.67291893986241 21.916883108105512 12.54390124160894 21.519 14.096 C 21.104584929690787 15.712588146071498 20.18404542098826 17.54453163188577 18.906 18.702 C 17.552516342289504 19.92778939279642 15.403690312407578 20.785916105293534 13.476 21.108 C 11.472466639817902 21.442755963480376 8.910682278585579 21.461355009744448 7.084 20.557 C 5.168350533656624 19.608599059063874 3.2757092354062105 17.633792819889788 2.34 15.334 C 1.138931300303195 12.382004799741079 1.928 3.716 1.928 3.716 C 1.9279999999999997 3.7159999999999997 1.9279999999999997 3.7159999999999997 1.928 3.716" transform="matrix(-1, 0, 0, -1, 23.486128, 23.042479)"/>
  <path style="fill: rgb(237, 155, 149); stroke: rgb(237, 155, 149);" d="M 28.197 19.107 C 28.197 19.107 29.378893211535672 20.560576799571127 30.466 20.894 C 32.343445688218516 21.469825628760425 36.92959493427824 20.69944039587995 39.058 20.275 C 40.36740625051169 20.01388198431514 41.16593468618559 19.715659618414115 42.151 19.244 C 43.16168880333542 18.76007158567923 44.16505564920793 18.222053700017682 45.038 17.388 C 46.05236431241691 16.41882675640256 47.255301208736306 15.028517020528671 47.719 13.608 C 48.194907884527176 12.150081060137595 48.185883108105514 10.279098758391061 47.788 8.727 C 47.373584929690786 7.1104118539284995 46.45304542098825 5.278468368114232 45.175 4.121 C 43.821516342289506 2.895210607203581 41.67269031240757 2.0370838947064684 39.745 1.715 C 37.741466639817894 1.3802440365196227 35.17968227858558 1.3616449902555539 33.353 2.266 C 31.43735053365662 3.214400940936124 29.54470923540621 5.18920718011021 28.609 7.489 C 27.407931300303193 10.440995200258918 28.197 19.107 28.197 19.107 C 28.196999999999996 19.106999999999996 28.196999999999996 19.107 28.197 19.107"/>
  <path style="fill: rgb(170, 85, 221); stroke: rgb(170, 85, 221);" d="M 1.121 45.195 C 1.121 45.195 2.302893211535677 46.64857679957112 3.39 46.982 C 5.2674456882185146 47.557825628760426 9.853594934278245 46.787440395879955 11.982 46.363 C 13.291406250511688 46.10188198431514 14.089934686185583 45.80365961841411 15.075 45.332 C 16.085688803335426 44.848071585679236 17.089055649207925 44.31005370001768 17.962 43.476 C 18.976364312416923 42.50682675640257 20.179301208736312 41.11651702052867 20.643 39.696 C 21.118907884527168 38.238081060137596 21.109883108105517 36.367098758391066 20.712 34.815 C 20.297584929690796 33.1984118539285 19.377045420988253 31.366468368114223 18.099 30.209 C 16.745516342289513 28.98321060720358 14.596690312407576 28.125083894706467 12.669 27.803 C 10.665466639817904 27.468244036519625 8.10368227858558 27.449644990255557 6.277 28.354 C 4.3613505336566245 29.30240094093612 2.46870923540621 31.277207180110207 1.533 33.577 C 0.33193130030319495 36.52899520025892 1.121 45.195 1.121 45.195 C 1.121 45.195 1.121 45.195 1.121 45.195" transform="matrix(-1, 0, 0, -1, 21.872132, 74.779527)"/>
</svg>